<?xml version="1.0" encoding="UTF-8"?>
<!DOCTYPE svg PUBLIC "-//W3C//DTD SVG 1.1//EN" "http://www.w3.org/Graphics/SVG/1.1/DTD/svg11.dtd">
<!-- Creator: CorelDRAW -->
<svg xmlns="http://www.w3.org/2000/svg" xml:space="preserve" width="597px" height="446px" version="1.1" style="shape-rendering:geometricPrecision; text-rendering:geometricPrecision; image-rendering:optimizeQuality; fill-rule:evenodd; clip-rule:evenodd"
viewBox="0 0 44.7 33.39"
 xmlns:xlink="http://www.w3.org/1999/xlink"
 xmlns:xodm="http://www.corel.com/coreldraw/odm/2003">
 <defs>
  <style type="text/css">
   <![CDATA[
    .fil2 {fill:#007BFF}
    .fil1 {fill:#FF4D4D}
    .fil0 {fill:#FFC107}
    .fil3 {fill:#006DB0;fill-rule:nonzero}
   ]]>
  </style>
 </defs>
 <g id="Layer_x0020_1">
  <metadata id="CorelCorpID_0Corel-Layer"/>
  <path class="fil0" d="M26.23 3.77c0.56,0.56 0.87,1.3 0.87,2.09 0,0.78 -0.31,1.52 -0.87,2.08 -0.07,0.08 -0.07,0.2 0,0.28 0.08,0.07 0.2,0.07 0.28,0 0.63,-0.63 0.98,-1.48 0.98,-2.36 0,-0.89 -0.35,-1.74 -0.98,-2.37 -0.08,-0.07 -0.2,-0.07 -0.28,0 -0.07,0.08 -0.07,0.2 0,0.28zm-7.77 0c0.08,-0.08 0.08,-0.2 0,-0.28 -0.07,-0.07 -0.2,-0.07 -0.27,0 -0.63,0.63 -0.98,1.48 -0.98,2.37 0,0.88 0.35,1.73 0.98,2.36 0.07,0.07 0.2,0.07 0.27,0 0.08,-0.08 0.08,-0.2 0,-0.28 -0.55,-0.56 -0.86,-1.3 -0.86,-2.08 0,-0.79 0.31,-1.53 0.86,-2.09z"/>
  <path class="fil0" d="M27.64 2.46c0.9,0.91 1.41,2.12 1.41,3.4 0,1.27 -0.51,2.48 -1.41,3.39 -0.12,0.12 -0.12,0.32 0,0.45 0.13,0.12 0.33,0.12 0.45,0 1.03,-1.02 1.59,-2.4 1.59,-3.84 0,-1.45 -0.56,-2.83 -1.59,-3.85 -0.12,-0.12 -0.32,-0.12 -0.45,0 -0.12,0.13 -0.12,0.33 0,0.45zm-10.58 0c0.12,-0.12 0.12,-0.32 0,-0.45 -0.13,-0.12 -0.33,-0.12 -0.46,0 -1.02,1.02 -1.59,2.4 -1.59,3.85 0,1.44 0.57,2.82 1.59,3.84 0.13,0.12 0.33,0.12 0.46,0 0.12,-0.13 0.12,-0.33 0,-0.45 -0.91,-0.91 -1.41,-2.12 -1.41,-3.39 0,-1.28 0.5,-2.49 1.41,-3.4z"/>
  <path class="fil1" d="M15.44 0.76c0.17,-0.18 0.17,-0.46 0,-0.63 -0.18,-0.17 -0.46,-0.17 -0.63,0 -1.53,1.52 -2.37,3.57 -2.37,5.73 0,2.15 0.84,4.2 2.37,5.72 0.17,0.17 0.45,0.17 0.63,0 0.17,-0.17 0.17,-0.45 0,-0.63 -1.36,-1.35 -2.12,-3.18 -2.12,-5.09 0,-1.92 0.76,-3.75 2.12,-5.1zm13.82 0c1.36,1.35 2.11,3.18 2.11,5.1 0,1.91 -0.75,3.74 -2.11,5.09 -0.17,0.18 -0.17,0.46 0,0.63 0.17,0.17 0.46,0.17 0.63,0 1.52,-1.52 2.37,-3.57 2.37,-5.72 0,-2.16 -0.85,-4.21 -2.37,-5.73 -0.17,-0.17 -0.46,-0.17 -0.63,0 -0.17,0.17 -0.17,0.45 0,0.63z"/>
  <path class="fil2" d="M13.49 24.08l-10.97 0c-1.4,0 -2.52,1.13 -2.52,2.52 0,1.38 1.12,2.51 2.52,2.51l10.97 0 0.02 0c1.71,0 3.24,-0.78 4.25,-2.01 0.43,-0.52 0.77,-1.12 0.98,-1.77 0.19,-0.55 0.29,-1.14 0.29,-1.75 0,-1.95 -1.06,-3.23 -2.03,-4.83 -0.15,-0.33 0.09,-0.71 0.46,-0.71l0.8 0 0 0 1.57 0 2.01 0 0 -2.01 -2 0 -0.01 0 -2.37 0c-1.39,0 -2.52,1.13 -2.52,2.52 0,1.74 2.07,2.88 2.07,5.03 0,1.94 -1.57,3.52 -3.52,3.52l-10.97 0c-0.28,0 -0.51,-0.22 -0.51,-0.5 0,-0.28 0.23,-0.51 0.51,-0.51l10.97 0c1.39,0 2.52,-1.12 2.52,-2.51 0,-1.74 -2.07,-2.88 -2.07,-5.03 0,-1.95 1.57,-3.52 3.52,-3.52l4.38 0 0 -2.02 -4.38 0 -0.02 0c-1.71,0.01 -3.24,0.79 -4.25,2.02 -0.43,0.52 -0.76,1.11 -0.98,1.77 -0.19,0.55 -0.28,1.14 -0.28,1.75 0,1.98 1.02,3.24 2.02,4.83 0.15,0.32 -0.09,0.7 -0.46,0.7zm9.36 -14.51l0 0 0 -1.49 0 -0.12 0 -0.23 0 -0.11 0 -0.22 0 -0.11 0 -0.31 0 -0.1 0 0 0 0 0 0 0 -1.02c0,-0.28 -0.22,-0.51 -0.5,-0.51l0 0c-0.28,0 -0.51,0.23 -0.51,0.51l0 1.02 0 0 0 0 0 0.18 0 0.04 0 0.02 0 0.02 0 0.22 0 0.01 0 0.08 0 0 0 0.04 0 0.46 0 0.03 0 0.01 0 0.08 0 0.01 0 0.17 0 0.01 0 0.03 0 0.09 0 0.04 0 0.03 0 0.02 0 0.04 0 0.09 0 0.03 0 0.01 0 0.09 0 0 0 0.05 0 0.04 0 0 0 0.05 0 0.08 0 0.05 0 0.01 0 0.08 0 0.02 0 0.02 0 0.05 0 0.02 0 0.02 0 0.08 0 0.01 0 0.04 0 0.04 0 0.01 0 0.04c0,1.11 0,2.14 0,2.57l-2.01 0c0,-0.41 0,-1.38 0,-2.44l0 -0.04 0 -0.66 0 -0.06 0 -0.01 0 -0.07 0 -0.04 0 -0.1 0 -0.02 0 -0.05 0 -0.19 0 -0.02 0 -1 0 -0.01 0 -0.35 0 -0.06 0 0 0 -0.06 0 -0.11 0 -0.02 0 -0.62 0 -0.01 0 -0.03 0 -0.18 0 0c0,-0.02 0,-0.04 0,-0.06l0 0c0,-0.02 0,-0.04 0.01,-0.06l0 0c0,-0.02 0,-0.04 0,-0.05l0 0c0,-0.02 0,-0.04 0,-0.06l0 0c0,-0.02 0.01,-0.04 0.01,-0.06l0 0c0,-0.01 0,-0.03 0.01,-0.05l0 0c0,-0.02 0,-0.04 0,-0.06l0 0c0.01,-0.01 0.01,-0.03 0.01,-0.05l0 0c0.01,-0.02 0.01,-0.04 0.01,-0.05l0 0c0.01,-0.02 0.01,-0.04 0.01,-0.06l0 0c0.01,-0.02 0.01,-0.03 0.02,-0.05l0 0c0,-0.02 0.01,-0.04 0.01,-0.05l0 0c0.01,-0.02 0.01,-0.04 0.02,-0.06l0 0c0,-0.01 0.01,-0.03 0.01,-0.05l0 0c0.01,-0.02 0.01,-0.03 0.02,-0.05l0 0c0,-0.02 0.01,-0.03 0.02,-0.05l0 0c0,-0.02 0.01,-0.03 0.02,-0.05l0 0c0,-0.02 0.01,-0.03 0.02,-0.05l0 0c0,-0.02 0.01,-0.03 0.02,-0.05l0 0c0,-0.02 0.01,-0.03 0.02,-0.05l0 0c0.01,-0.02 0.01,-0.03 0.02,-0.05l0 0c0.01,-0.01 0.02,-0.03 0.03,-0.04l0 0c0,-0.02 0.01,-0.04 0.02,-0.05l0 0c0.01,-0.02 0.02,-0.03 0.03,-0.05l0 0c0.01,-0.01 0.01,-0.03 0.02,-0.04l0 0c0.01,-0.02 0.02,-0.03 0.03,-0.05l0 0c0.01,-0.01 0.02,-0.03 0.03,-0.04l0 0c0.01,-0.02 0.02,-0.03 0.03,-0.05l0 0c0.01,-0.01 0.02,-0.03 0.03,-0.04l0 0c0.01,-0.02 0.02,-0.03 0.03,-0.04l0 0c0.01,-0.02 0.02,-0.03 0.04,-0.05l0 0c0.01,-0.01 0.02,-0.02 0.03,-0.04l0 0c0.01,-0.01 0.02,-0.02 0.03,-0.04l0 0c0.01,-0.01 0.03,-0.02 0.04,-0.04l0 0c0.01,-0.01 0.02,-0.02 0.03,-0.04l0 0c0.02,-0.01 0.03,-0.02 0.04,-0.03l0 0c0.01,-0.02 0.02,-0.03 0.04,-0.04l0 0c0.01,-0.01 0.02,-0.03 0.04,-0.04l0 0c0.01,-0.01 0.02,-0.02 0.03,-0.03l0 0c0.02,-0.02 0.03,-0.03 0.04,-0.04l0 0c0.02,-0.01 0.03,-0.02 0.04,-0.03l0 0c0.02,-0.01 0.03,-0.03 0.05,-0.04l0 0c0.01,-0.01 0.02,-0.02 0.04,-0.03l0 0c0.01,-0.01 0.03,-0.02 0.04,-0.03l0 0c0.01,-0.01 0.03,-0.02 0.04,-0.03l0 0c0.02,-0.01 0.03,-0.02 0.05,-0.03l0 0c0.01,-0.01 0.03,-0.02 0.04,-0.03l0 0c0.02,-0.01 0.03,-0.02 0.05,-0.03l0 0c0.01,-0.01 0.03,-0.02 0.04,-0.02l0 0c0.02,-0.01 0.03,-0.02 0.05,-0.03l0 0c0.01,-0.01 0.03,-0.02 0.05,-0.03l0 0c0.01,0 0.03,-0.01 0.04,-0.02l0 0c0.02,-0.01 0.04,-0.02 0.05,-0.02l0 0c0.02,-0.01 0.03,-0.02 0.05,-0.03l0 0c0.02,0 0.03,-0.01 0.05,-0.02l0 0c0.02,0 0.03,-0.01 0.05,-0.02l0 0c0.02,0 0.03,-0.01 0.05,-0.02l0 0c0.02,0 0.03,-0.01 0.05,-0.01l0 0c0.02,-0.01 0.03,-0.02 0.05,-0.02l0 0c0.02,-0.01 0.04,-0.01 0.05,-0.02l0 0c0.02,0 0.04,-0.01 0.06,-0.01l0 0c0.01,-0.01 0.03,-0.01 0.05,-0.02l0 0c0.02,0 0.03,0 0.05,-0.01l0 0c0.02,0 0.04,-0.01 0.06,-0.01l0 0 0 0 0 0 0.01 0 0 0 0.01 0 0 0 0.01 -0.01 0 0 0 0 0 0 0.01 0 0 0 0.01 0 0 0 0.01 0 0 0 0 0 0 0 0.01 0 0 0 0.01 -0.01 0 0 0.01 0 0 0 0.01 0 0 0 0 0 0 0 0.01 0 0 0 0.01 0 0 0 0.01 0 0 0 0 0 0 0 0.01 -0.01 0 0 0.01 0 0 0 0.01 0 0 0 0.01 0 0 0 0 0 0 0 0.01 0 0 0 0.01 0 0 0 0.01 0 0 0 0 0 0 0 0.01 0 0 0 0.01 -0.01 0 0 0.01 0 0 0 0.01 0 0 0 0 0 0 0 0.01 0 0 0 0.01 0 0 0 0.01 0 0 0 0 0 0 0 0.01 0 0 0 0.01 0 0 0 0.01 0 0 0 0.01 0 0 0 0 0 0 0 0.01 0 0 0 0.01 -0.01 0 0 0.01 0 0 0 0.01 0 0 0 0 0 0 0 0.01 0 0 0 0.01 0 0 0 0.01 0 0 0 0.01 0 0 0 0 0 0 0 0.01 0 0 0 0.01 0 0 0 0.01 0 0 0 0.01 0 0 0 0 0 0 0 0.01 0 0 0 0.01 0 0 0 0.01 0 0 0 0.01 0 0 0 0 0 0 0 0.01 0 0 0 0.01 0 0 0 0.01 0 0 0 0.01 0 0 0 0 0 0 0 0.01 0 0 0 0.01 0 0 0 0.01 0 0 0 0.01 0 0 0 0 0 0.01 0 0 0 0 0 0.01 0 0 0 0.01 0 0 0 0.01 0 0 0 0 0 0.01 0 0 0 0 0 0.01 0 0 0 0.01 0 0 0 0.01 0 0 0 0 0 0 0 0.01 0 0 0 0.01 0 0 0 0.01 0 0 0 0.01 0 0 0 0 0.01 0 0 0.01 0 0 0 0.01 0 0 0 0.01 0 0 0 0.01 0 0 0 0 0 0 0 0.01 0 0 0 0.01 0 0 0 0.01 0 0 0 0.01 0 0 0 0 0 0 0 0.01 0 0 0 0.01 0 0 0 0.01 0 0 0 0.01 0.01 0 0 0 0 0 0 0.01 0 0 0 0.01 0 0 0 0.01 0 0 0 0 0 0 0 0.01 0 0 0 0.01 0 0 0 0.01 0 0 0 0.01 0 0 0 0 0.01 0 0 0.01 0 0 0 0.01 0 0 0 0.01 0 0 0 0 0 0 0 0.01 0 0 0 0.01 0 0 0 0.01 0 0 0 0.01 0.01 0 0 0 0 0 0 0.01 0 0 0 0.01 0 0 0 0.01 0 0 0 0 0 0 0 0.01 0 0 0 0.01 0.01 0 0 0.01 0 0 0 0 0 0 0 0.01 0 0 0c0.02,0 0.04,0.01 0.06,0.01l0 0c0.01,0.01 0.03,0.01 0.05,0.01l0 0c0.02,0.01 0.03,0.01 0.05,0.02l0 0c0.02,0 0.04,0.01 0.05,0.01l0 0c0.02,0.01 0.04,0.01 0.06,0.02l0 0c0.01,0 0.03,0.01 0.05,0.02l0 0c0.01,0 0.03,0.01 0.05,0.01l0 0c0.01,0.01 0.03,0.02 0.05,0.02l0 0c0.01,0.01 0.03,0.02 0.05,0.02l0 0c0.01,0.01 0.03,0.02 0.05,0.02l0 0c0.01,0.01 0.03,0.02 0.05,0.03l0 0c0.01,0 0.03,0.01 0.04,0.02l0 0c0.02,0.01 0.04,0.02 0.05,0.02l0 0c0.02,0.01 0.03,0.02 0.05,0.03l0 0c0.01,0.01 0.03,0.02 0.04,0.03l0 0c0.02,0 0.04,0.01 0.05,0.02l0 0c0.02,0.01 0.03,0.02 0.05,0.03l0 0c0.01,0.01 0.03,0.02 0.04,0.03l0 0c0.01,0.01 0.03,0.02 0.04,0.03l0 0c0.02,0.01 0.03,0.02 0.05,0.03l0 0c0.01,0.01 0.03,0.02 0.04,0.03l0 0c0.01,0.01 0.03,0.02 0.04,0.03l0 0c0.02,0.01 0.03,0.03 0.04,0.04l0 0c0.02,0.01 0.03,0.02 0.04,0.03l0 0c0.02,0.01 0.03,0.02 0.04,0.04l0 0c0.02,0.01 0.03,0.02 0.04,0.03l0 0c0.01,0.01 0.03,0.03 0.04,0.04l0 0c0.01,0.01 0.02,0.02 0.04,0.04l0 0c0.01,0.01 0.02,0.02 0.03,0.03l0 0c0.02,0.02 0.03,0.03 0.04,0.04l0 0c0.01,0.02 0.02,0.03 0.03,0.04l0 0c0.02,0.02 0.03,0.03 0.04,0.04l0 0c0.01,0.02 0.02,0.03 0.03,0.04l0 0c0.01,0.02 0.02,0.03 0.03,0.05l0 0c0.01,0.01 0.03,0.02 0.04,0.04l0 0c0.01,0.01 0.02,0.03 0.03,0.04l0 0c0.01,0.02 0.02,0.03 0.03,0.05l0 0c0.01,0.01 0.02,0.03 0.03,0.04l0 0c0,0.02 0.01,0.03 0.02,0.05l0 0c0.01,0.01 0.02,0.03 0.03,0.04l0 0c0.01,0.02 0.02,0.03 0.03,0.05l0 0c0,0.01 0.01,0.03 0.02,0.05l0 0c0.01,0.01 0.02,0.03 0.03,0.04l0 0c0,0.02 0.01,0.03 0.02,0.05l0 0c0.01,0.02 0.01,0.03 0.02,0.05l0 0c0.01,0.02 0.02,0.03 0.02,0.05l0 0c0.01,0.02 0.02,0.03 0.02,0.05l0 0c0.01,0.02 0.02,0.03 0.02,0.05l0 0c0.01,0.02 0.01,0.03 0.02,0.05l0 0c0.01,0.02 0.01,0.03 0.02,0.05l0 0c0,0.02 0.01,0.04 0.01,0.05l0 0c0.01,0.02 0.01,0.04 0.02,0.06l0 0c0,0.01 0.01,0.03 0.01,0.05l0 0c0,0.02 0.01,0.03 0.01,0.05l0 0c0.01,0.02 0.01,0.04 0.01,0.06l0 0c0.01,0.01 0.01,0.03 0.01,0.05l0 0c0.01,0.02 0.01,0.04 0.01,0.05l0 0c0.01,0.02 0.01,0.04 0.01,0.06l0 0c0,0.02 0.01,0.04 0.01,0.05l0 0c0,0.02 0,0.04 0,0.06l0 0c0.01,0.02 0.01,0.04 0.01,0.06l0 0c0,0.01 0,0.03 0,0.05l0 0c0,0.02 0,0.04 0,0.06l0 0c0,0.02 0,0.04 0,0.06l0 0 0 8.08 0 2.01 0 5.23 0 0c0.06,1.62 1.39,2.9 3.02,2.9 1.66,0 3.01,-1.35 3.01,-3.02 0,-1.66 -1.35,-3.02 -3.01,-3.02 -1.53,0 -1.7,0 -2.01,0l0 -2.01 2.01 0c2.78,0.01 5.03,2.26 5.03,5.03 0,2.78 -2.26,5.03 -5.03,5.03 -2.78,0 -5.04,-2.25 -5.04,-5.03 0,-0.1 0.01,-0.2 0.01,-0.29l0 -4.82 0 -2.01 0 -4.37zm19.11 14.51l0.22 0c1.4,0 2.52,1.13 2.52,2.52 0,1.38 -1.12,2.51 -2.52,2.51l-0.22 0c-2.63,0 -4.96,-1.26 -6.43,-3.21 0.43,-0.67 0.77,-1.41 1.01,-2.18 0.98,2 3.04,3.38 5.42,3.38l0.22 0c0.28,0 0.5,-0.22 0.5,-0.5 0,-0.28 -0.22,-0.51 -0.5,-0.51l-0.22 0c-2.78,0 -5.03,-2.25 -5.03,-5.03 -0.01,-3.99 0.01,-3.53 0.01,-7.52 0,-0.28 -0.23,-0.5 -0.5,-0.5 -0.28,0 -0.51,0.22 -0.51,0.5 0,4.03 -0.02,3.56 -0.02,7.6 0,4.32 -3.53,7.97 -8.03,7.97 -4.41,0 -7.99,-3.54 -8.05,-7.93l0 0 0 -2.13 0 0 2.01 0 0 0 0 2.01c0,3.34 2.7,6.04 6.04,6.04 3.3,0 6.01,-2.65 6.01,-5.96 0.01,-4.02 0.03,-3.58 0.03,-7.6 0,-1.22 0.86,-2.23 2.01,-2.47 0.16,-0.03 0.33,-0.05 0.51,-0.05 0.17,0 0.34,0.02 0.5,0.05 1.15,0.24 2.01,1.25 2.01,2.47 0,4.04 0,3.61 0,7.64 0.06,1.62 1.39,2.9 3.01,2.9l0 0zm-9.05 -6.35c-1.08,-1.63 -2.93,-2.7 -5.03,-2.7l-2.01 0 0 -2.02 1.97 0c1.86,0 3.62,0.61 5.07,1.77l0 2.95z"/>
  <path class="fil2" d="M11.03 18.99l0 0.08c0,0.06 -0.01,0.11 -0.03,0.14 -0.06,0.13 -0.21,0.1 -0.33,0.12 -0.07,0.02 -0.17,0.06 -0.24,0.02l0.01 -0.07c-0.09,0.04 -0.13,-0.02 -0.19,-0.04 -0.02,0 -0.03,-0.01 -0.04,-0.02 0,-0.05 0.07,-0.12 0.09,-0.18 0,-0.02 0,-0.04 0,-0.06l0.02 -0.12c0,-0.03 0,-0.04 0.01,-0.06 0.01,-0.09 0.02,-0.03 0.05,-0.15 0,-0.02 0,-0.04 0,-0.06 0.02,-0.09 -0.01,-0.2 -0.05,-0.27 0,-0.02 -0.01,-0.03 -0.02,-0.05 -0.02,-0.06 -0.06,-0.11 -0.1,-0.16l-0.07 -0.1c-0.05,-0.05 -0.1,-0.1 -0.15,-0.15l-0.03 -0.04c-0.02,-0.02 -0.03,-0.05 -0.05,-0.07 0,0.05 0.01,0.1 0,0.15 0,0.03 0,0.07 0,0.1l-0.01 -0.02c0,0.04 0,0.08 0,0.13 0,0.22 0.01,0.13 0.06,0.33 0.12,0.5 0.02,0.56 0.06,0.85l0.02 0.2 0.01 -0.04 0.01 0.02c0.01,0.07 0,0.14 0.02,0.21 0,0.02 0,0.04 0.01,0.06 0.01,0.04 0.02,0.08 0.03,0.12l0.04 0.12c0.05,0.15 0.02,0.15 0.02,0.31 0,0.04 -0.01,0.04 0,0.08 0.03,0.13 0.06,0.2 0.09,0.35 -0.01,0.02 -0.01,-0.01 -0.01,0.03 -0.01,0.04 0.03,0.22 0.04,0.26 0.03,0.15 0.08,0.45 0.09,0.61 0.01,0.06 0.02,0.16 0.02,0.21l0.01 0.12c0,0.1 0,0.18 -0.02,0.27 -0.03,0.13 -0.12,0.43 -0.12,0.47 -0.03,0.14 0.03,0.09 -0.18,0.22 -0.06,0.04 -0.06,0.01 -0.08,0.11 -0.02,0.13 -0.02,0.27 0.01,0.4 0.01,0.05 0.01,0.1 0.03,0.16 0.02,0.11 0.04,0.21 0.06,0.32 0.01,0.06 0.02,0.12 0.02,0.18l-1.23 0 0 -0.77c0,-0.15 -0.01,-0.1 -0.05,-0.2 -0.01,-0.01 -0.01,-0.02 -0.01,-0.03 -0.01,-0.03 -0.03,-0.08 -0.04,-0.1 -0.04,-0.06 -0.08,0.04 -0.21,-0.07 -0.03,-0.02 -0.03,-0.04 -0.04,-0.08 -0.01,-0.05 -0.01,-0.11 -0.02,-0.17l-0.04 -0.26c-0.01,-0.05 -0.01,-0.09 -0.02,-0.14 -0.04,-0.17 -0.05,-0.18 -0.04,-0.35 0,-0.02 0,-0.05 0.01,-0.07 0.01,-0.09 0.01,-0.24 -0.02,-0.33 0,-0.02 -0.01,-0.03 -0.01,-0.05 -0.09,-0.22 -0.08,-0.24 -0.12,-0.47 -0.03,-0.19 -0.1,-0.3 -0.14,-0.46 -0.04,-0.17 -0.03,-0.17 -0.09,-0.36 -0.05,-0.15 -0.06,-0.26 -0.03,-0.41 0,0.01 0.01,-0.01 0,0.01 -0.02,0.02 -0.03,0.05 -0.03,0.08 -0.01,0.01 -0.01,0.03 -0.02,0.05 -0.01,0.05 -0.02,0.1 -0.03,0.16 -0.01,0.04 0,0.08 -0.01,0.12 -0.01,0.04 0,0.08 -0.01,0.12 -0.03,0.2 -0.06,0.41 -0.09,0.61l-0.03 0.29c0,0.22 -0.02,0.46 -0.08,0.68l-0.14 0.49c-0.03,0.07 -0.04,0.13 -0.06,0.21l-0.07 0.31c-0.01,0.05 0.01,0.07 -0.03,0.1 -0.04,0.04 -0.14,0.07 -0.21,0.07 -0.02,0 -0.02,0 -0.02,-0.02 -0.03,0 -0.05,0 -0.08,-0.01 -0.02,-0.01 -0.03,-0.01 -0.06,0 -0.02,0.01 -0.02,0.02 -0.03,0.05 -0.01,0.06 -0.03,0.11 -0.06,0.17 -0.04,0.09 -0.03,0.17 -0.04,0.27l0 0.29c0,0.11 0,0.19 -0.01,0.27l-1.28 0c0.01,-0.07 0.02,-0.14 0.02,-0.2 0,-0.04 0,-0.06 0,-0.09 0,-0.03 0.01,-0.03 0.01,-0.05 0,-0.02 0,-0.04 0,-0.05 0,-0.02 0,-0.02 0,-0.04 0,-0.08 0.01,-0.15 0.01,-0.23 0,-0.12 -0.03,-0.17 -0.03,-0.28l0.01 -0.14c0,-0.05 0.01,-0.09 0.01,-0.14 0,-0.03 0.02,-0.2 -0.02,-0.18 -0.04,0 -0.07,0.01 -0.09,-0.04 -0.01,-0.05 0.01,-0.07 0.01,-0.12l0 -0.12c-0.01,-0.08 -0.01,-0.16 -0.01,-0.24l0 -0.14c0,-0.02 0,-0.05 0,-0.07l0.02 -0.16c0.02,-0.17 0.04,-0.35 0.07,-0.52l0.13 -0.91c0.01,-0.03 0.01,-0.06 0.01,-0.1 0,-0.01 0.01,0 0.01,-0.02 0,-0.02 0,-0.03 0,-0.04 0.01,-0.07 0,-0.12 0,-0.17l0.06 -0.5c0.01,-0.13 0.04,-0.25 0.04,-0.37 0,-0.18 0.04,-0.33 0.06,-0.5 0.01,-0.04 0.02,-0.07 0.01,-0.11 -0.01,-0.04 -0.03,-0.07 -0.04,-0.11 -0.03,-0.08 -0.06,-0.14 0.02,-0.19 0,-0.09 0.03,-0.14 0.07,-0.2 0,-0.02 0.01,-0.03 0.01,-0.04 0.01,-0.02 0.03,-0.04 0.04,-0.06l0.13 -0.2c0.07,-0.1 0.03,-0.07 0.03,-0.14 0,-0.06 0.03,-0.09 0.03,-0.14 0,-0.02 -0.02,-0.02 -0.02,-0.06 0,-0.06 0.02,-0.1 0.02,-0.16 0,-0.03 -0.01,-0.07 0.01,-0.1 0.01,-0.03 0.07,-0.1 0.07,-0.13 0,0 -0.02,-0.02 -0.02,-0.03 -0.01,-0.04 0,-0.07 -0.01,-0.09 -0.01,-0.08 0.01,-0.12 0.04,-0.18 0.02,-0.04 0.04,-0.08 0.06,-0.12 0.03,-0.05 0.04,-0.25 0.04,-0.31 0,-0.1 -0.06,-0.08 -0.03,-0.2 0,-0.02 0.01,-0.05 0.01,-0.06 0.01,-0.05 -0.02,-0.11 -0.04,-0.16l-0.04 -0.17c-0.02,-0.15 -0.07,-0.28 -0.1,-0.43 -0.02,-0.09 -0.02,-0.12 -0.06,-0.21l-0.11 -0.29c-0.03,-0.06 -0.05,-0.12 -0.11,-0.15 -0.1,-0.06 -0.41,-0.12 -0.52,-0.15 -0.12,-0.04 -0.23,-0.08 -0.34,-0.13l-0.72 -0.41c-0.06,-0.03 -0.11,-0.06 -0.17,-0.1 -0.1,-0.06 -0.2,-0.12 -0.31,-0.16 -0.2,-0.09 -0.66,-0.15 -0.91,-0.23 -0.17,-0.05 -0.32,-0.11 -0.48,-0.19l-0.13 -0.07c-0.07,-0.04 -0.14,-0.08 -0.2,-0.13l-0.14 -0.1c-0.01,-0.01 -0.01,0 -0.02,-0.01 -0.07,-0.07 -0.15,-0.11 -0.24,-0.16 -0.06,-0.03 -0.12,-0.06 -0.18,-0.09 -0.02,-0.02 -0.05,-0.04 -0.08,-0.05 -0.02,-0.01 -0.02,-0.02 -0.04,-0.03 -0.05,-0.02 -0.07,-0.01 -0.11,0 -0.05,0.01 -0.1,0.02 -0.15,0 -0.07,-0.03 -0.04,-0.08 -0.1,-0.12 -0.04,-0.01 -0.07,-0.03 -0.11,-0.05 -0.03,-0.02 -0.07,-0.03 -0.1,-0.04 -0.05,-0.01 -0.09,-0.02 -0.12,-0.04l-0.05 -0.03c-0.02,-0.01 -0.03,-0.02 -0.04,-0.03 -0.04,-0.04 -0.03,-0.06 -0.04,-0.11 -0.01,-0.07 -0.05,-0.09 -0.05,-0.1 0,-0.03 0,-0.04 0,-0.07 0,-0.03 -0.02,-0.03 -0.04,-0.1 0,-0.03 -0.01,-0.05 -0.01,-0.08 0,-0.11 0.21,-0.14 0.11,-0.25 -0.06,-0.07 -0.39,-0.14 -0.51,-0.19 -0.07,-0.03 -0.18,-0.09 -0.18,-0.18 0,-0.1 0.27,-0.02 0.3,-0.02l0.54 0.15c0.06,0.01 0.12,0.03 0.18,0.04 0.07,0.02 0.1,0.03 0.16,0.07 0.01,0.01 0.02,0.02 0.03,0.03l0.18 0.16c0.02,0.01 0.02,0.02 0.03,0.03 0.02,0.02 0.04,0.04 0.06,0.06l0.12 0.1c0.02,0.02 0.04,0.04 0.06,0.05l0.28 0.18c0.01,0.01 0.03,0.01 0.04,0.02 0.01,0.01 0.02,0.01 0.04,0.02 0.07,0.04 0.32,0.15 0.39,0.17l0.51 0.17c0.18,0.06 0.37,0.08 0.54,0.15 0.22,0.09 0.52,0.22 0.74,0.29 0.01,0.01 0.02,0.01 0.04,0.02l0.34 0.11c0.17,0.05 0.4,0.12 0.55,0.19 0.24,0.12 0.3,0.01 0.55,0.01 0.02,0 0.05,0 0.07,-0.01 0.02,0 0.16,0.01 0.18,0.01 0.07,0.02 0.15,0.03 0.22,0.05 0.1,0.02 0.19,0.06 0.28,0.12 0.02,0.01 0.04,0.04 0.07,0.06 0.02,0.02 0.05,0.03 0.08,0.05l0.04 0.02c0.05,0.03 0.09,0.04 0.15,0.05 0.09,0.01 0.15,0.02 0.24,0.02l0.07 0.01c0,-0.03 0,-0.01 0,-0.02 0.02,0 0.02,0.01 0.03,0.01 0.02,0 0.03,-0.05 0.03,-0.07 0,-0.07 -0.03,-0.07 -0.08,-0.11l-0.04 -0.05c-0.01,-0.01 -0.02,-0.04 -0.02,-0.06l0.01 0.01c0,-0.02 -0.01,-0.04 -0.02,-0.06 -0.05,-0.06 -0.04,-0.14 -0.04,-0.22 0,-0.09 0.01,-0.08 -0.03,-0.14 -0.09,-0.12 -0.1,-0.24 -0.12,-0.38 -0.02,-0.08 0.03,-0.21 0.03,-0.3 0,-0.07 -0.08,-0.06 -0.05,-0.18 0.02,-0.08 0.01,-0.03 0.01,-0.11 0,-0.03 -0.01,-0.03 -0.01,-0.05 0,-0.06 0.01,-0.12 0.02,-0.17 0.01,-0.02 0,-0.04 0.01,-0.06 0,-0.01 0,-0.03 0.01,-0.04 0,-0.02 0,-0.04 0.01,-0.05 0.01,-0.06 0.03,-0.11 0.07,-0.16 0.04,-0.05 0.07,-0.11 0.12,-0.16 0.07,-0.07 0.14,-0.09 0.24,-0.11 0.12,-0.03 0.12,0 0.24,-0.05 0.04,-0.02 0.15,-0.04 0.19,-0.03l0.1 0.02c0.01,0.01 0.02,0.01 0.04,0.01 0.01,0.01 0.02,0.01 0.04,0.02 0.04,0.01 0.1,0.02 0.13,0.04 0.07,0.03 0.15,0.1 0.2,0.15 0.04,0.04 0.28,0.17 0.33,0.24l0.03 0.03c0.08,0.11 0.12,0.38 0.12,0.52 0,0.06 -0.03,0.15 -0.04,0.2 -0.02,0.06 -0.04,0.12 -0.05,0.17 -0.01,0.04 -0.02,0.06 -0.03,0.1 -0.01,0.03 -0.01,0.06 -0.02,0.09 -0.01,0.06 -0.03,0.13 -0.03,0.19 0.04,0.01 0.06,0.04 0.07,0.07 0.06,0.08 0.07,0.23 0.08,0.33 0.02,0.1 0.07,0.15 0.12,0.22 0.05,0.07 0.11,0.12 0.16,0.19l0.03 0.04c0.04,0.06 0.09,0.16 0.1,0.23 0.01,0.03 0.02,0.08 0.04,0.11 0.02,0.05 0.06,0.09 0.1,0.13 0.06,0.05 0.12,0.08 0.18,0.12 0.03,0.02 0.06,0.04 0.09,0.05 0.09,0.06 0.07,0.06 0.13,0.14 0.02,0.03 0.04,0.06 0.06,0.08 0.01,0.01 0.01,0.01 0.02,0.02l0.18 0.2c0.01,0.01 0.01,0.02 0.02,0.04 0.08,0.13 0.07,0.28 0.1,0.38 0.02,0.07 0.03,0.15 0.05,0.22 0,0.03 0,0.05 0,0.07 0.02,0.09 0.02,0.18 0.05,0.29 0.01,0.09 0.15,0.53 0.19,0.63 0.01,0.01 0.02,0.02 0.03,0.04l0.07 0.13c0.05,0.1 0.08,0.2 0.1,0.31 0.06,0.21 0.12,0.42 0.17,0.64 0.02,0.11 0.16,0.65 0.2,0.76 0.02,0.07 0.03,0.14 0.08,0.2 0,0 0.01,0.01 0.01,0.02 0.07,0.12 0.07,0.36 0.07,0.39 0.01,0.03 0.02,0.07 0.02,0.12zm-2.04 -5.26l0 0c0,0 0,0 0,0zm-0.02 -0.02l0.01 -0.01 0 0.01 0 0.01 -0.01 -0.01zm-0.01 -0.02l0 0 0.01 0 0 0.01 -0.01 -0.01z"/>
  <path class="fil3" d="M1.95 32.6c0,-0.86 -1.28,-0.66 -1.28,-1.11 0,-0.16 0.12,-0.24 0.27,-0.24 0.17,0.01 0.28,0.11 0.3,0.27l0.68 0c-0.03,-0.49 -0.41,-0.77 -0.97,-0.77 -0.54,0 -0.94,0.27 -0.94,0.76 -0.01,0.92 1.28,0.66 1.28,1.14 0,0.15 -0.12,0.24 -0.3,0.24 -0.18,0 -0.3,-0.1 -0.32,-0.29l-0.67 0c0.02,0.52 0.45,0.79 1.01,0.79 0.6,0 0.94,-0.36 0.94,-0.79z"/>
  <path id="_1" class="fil3" d="M2.32 32.33c0,0.71 0.47,1.06 1.07,1.06 0.6,0 1.1,-0.35 1.1,-1.06l0 -1.54 -0.63 0 0 1.54c0,0.31 -0.16,0.48 -0.46,0.48 -0.3,0 -0.45,-0.17 -0.45,-0.48l0 -1.54 -0.63 0 0 1.54z"/>
  <path id="_2" class="fil3" d="M6.69 33.37l0.67 0 -0.94 -2.58 -0.73 0 -0.93 2.58 0.66 0 0.15 -0.46 0.97 0 0.15 0.46zm-0.32 -0.94l-0.63 0 0.31 -0.95 0.32 0.95z"/>
  <path id="_3" class="fil3" d="M9 31.62c0,0.21 -0.11,0.33 -0.34,0.33l-0.39 0 0 -0.64 0.39 0c0.23,0 0.34,0.12 0.34,0.31zm-1.36 -0.83l0 2.58 0.63 0 0 -0.98 0.15 0 0.54 0.98 0.71 0 -0.6 -1.02c0.4,-0.12 0.57,-0.43 0.57,-0.75 0,-0.45 -0.31,-0.81 -0.94,-0.81l-1.06 0z"/>
  <path id="_4" class="fil3" d="M11.8 33.37l0.67 0 -0.94 -2.58 -0.73 0 -0.93 2.58 0.66 0 0.15 -0.46 0.97 0 0.15 0.46zm-0.32 -0.94l-0.63 0 0.31 -0.95 0.32 0.95z"/>
  <path id="_5" class="fil3" d="M14.95 32.58c0,0.19 -0.12,0.28 -0.33,0.28l-0.46 0 0 -0.57 0.45 0c0.21,0 0.34,0.11 0.34,0.29zm-0.06 -1.02c0,0.18 -0.11,0.27 -0.32,0.27l-0.41 0 0 -0.54 0.41 0c0.21,0 0.32,0.1 0.32,0.27zm0.7 1.11c0,-0.3 -0.2,-0.56 -0.5,-0.63 0.25,-0.07 0.44,-0.27 0.44,-0.58 0,-0.41 -0.31,-0.67 -0.84,-0.67l-1.16 0 0 2.58 1.2 0c0.55,0 0.86,-0.28 0.86,-0.7z"/>
  <path id="_6" class="fil3" d="M15.94 32.33c0,0.71 0.47,1.06 1.07,1.06 0.59,0 1.1,-0.35 1.1,-1.06l0 -1.54 -0.63 0 0 1.54c0,0.31 -0.16,0.48 -0.46,0.48 -0.3,0 -0.45,-0.17 -0.45,-0.48l0 -1.54 -0.63 0 0 1.54z"/>
  <polygon id="_7" class="fil3" points="18.55,33.37 19.18,33.37 19.18,31.82 19.76,33.37 20.26,33.37 20.84,31.82 20.84,33.37 21.47,33.37 21.47,30.79 20.73,30.79 20.01,32.57 19.29,30.79 18.55,30.79 "/>
  <polygon id="_8" class="fil3" points="21.92,33.37 22.55,33.37 22.55,30.79 21.92,30.79 "/>
  <polygon id="_9" class="fil3" points="23.79,30.79 23.79,33.37 25.24,33.37 25.24,32.88 24.42,32.88 24.42,30.79 "/>
  <path id="_10" class="fil3" d="M27.3 33.37l0.67 0 -0.93 -2.58 -0.73 0 -0.94 2.58 0.66 0 0.16 -0.46 0.96 0 0.15 0.46zm-0.31 -0.94l-0.64 0 0.32 -0.95 0.32 0.95z"/>
  <path id="_11" class="fil3" d="M30.13 32.6c0,-0.86 -1.28,-0.66 -1.28,-1.11 0,-0.16 0.12,-0.24 0.27,-0.24 0.17,0.01 0.29,0.11 0.3,0.27l0.68 0c-0.03,-0.49 -0.41,-0.77 -0.97,-0.77 -0.54,0 -0.94,0.27 -0.94,0.76 -0.01,0.92 1.28,0.66 1.28,1.14 0,0.15 -0.12,0.24 -0.3,0.24 -0.18,0 -0.3,-0.1 -0.32,-0.29l-0.67 0c0.02,0.52 0.45,0.79 1.01,0.79 0.6,0 0.94,-0.36 0.94,-0.79z"/>
  <polygon id="_12" class="fil3" points="30.52,33.37 31.15,33.37 31.15,30.79 30.52,30.79 "/>
  <polygon id="_13" class="fil3" points="33.28,30.79 33.28,32.39 32.23,30.79 31.6,30.79 31.6,33.37 32.23,33.37 32.23,31.78 33.28,33.37 33.91,33.37 33.91,30.79 "/>
  <path id="_14" class="fil3" d="M35.73 31.62c0,0.21 -0.11,0.33 -0.34,0.33l-0.39 0 0 -0.64 0.39 0c0.23,0 0.34,0.12 0.34,0.31zm-1.36 -0.83l0 2.58 0.63 0 0 -0.98 0.15 0 0.53 0.98 0.71 0 -0.59 -1.02c0.4,-0.12 0.57,-0.43 0.57,-0.75 0,-0.45 -0.31,-0.81 -0.95,-0.81l-1.05 0z"/>
  <path id="_15" class="fil3" d="M38.53 33.37l0.66 0 -0.93 -2.58 -0.73 0 -0.93 2.58 0.66 0 0.15 -0.46 0.96 0 0.16 0.46zm-0.32 -0.94l-0.63 0 0.31 -0.95 0.32 0.95z"/>
  <polygon id="_16" class="fil3" points="41.16,30.79 41.16,32.39 40.11,30.79 39.48,30.79 39.48,33.37 40.11,33.37 40.11,31.78 41.16,33.37 41.79,33.37 41.79,30.79 "/>
  <path id="_17" class="fil3" d="M43.45 30.76c-0.77,0 -1.31,0.54 -1.31,1.31 0,0.78 0.54,1.32 1.31,1.32 0.68,0 1.11,-0.45 1.25,-0.89l0 -0.59 -1.37 0 0 0.47 0.8 0c-0.1,0.29 -0.32,0.45 -0.63,0.45 -0.45,0 -0.72,-0.28 -0.72,-0.76 0,-0.45 0.27,-0.73 0.67,-0.73 0.24,0 0.41,0.09 0.51,0.26l0.69 0c-0.13,-0.53 -0.58,-0.84 -1.2,-0.84z"/>
  <path class="fil1" d="M41.82 12.01c1.03,0 1.86,0.83 1.86,1.86l0 7.34c0,1.02 -0.83,1.86 -1.86,1.86 -1.02,0 -1.85,-0.84 -1.85,-1.86l0 -7.34c0,-1.03 0.83,-1.86 1.85,-1.86zm0.36 9.75c0.26,-0.02 0.5,-0.2 0.5,-0.56 0,-0.45 -0.32,-0.59 -0.89,-0.59 -0.51,0 -0.83,0.14 -0.83,0.61 0,0.36 0.22,0.58 0.56,0.58 0.35,0 0.53,-0.22 0.53,-0.51 0,-0.14 -0.05,-0.26 -0.15,-0.33 0.32,0 0.46,0.06 0.46,0.22 0,0.13 -0.06,0.19 -0.18,0.21l0 0.37zm-0.44 -0.56c0,0.16 -0.09,0.23 -0.22,0.23 -0.14,0 -0.23,-0.08 -0.23,-0.22 0,-0.13 0.08,-0.22 0.23,-0.22 0.14,0 0.22,0.09 0.22,0.21zm0.91 -0.78l0 -1.16 -0.32 0 0 0.62c-0.2,-0.26 -0.5,-0.59 -0.87,-0.59 -0.28,0 -0.5,0.17 -0.5,0.55 0,0.31 0.17,0.57 0.58,0.58l0 -0.38c-0.16,0 -0.25,-0.07 -0.25,-0.18 0,-0.12 0.08,-0.18 0.2,-0.18 0.28,0 0.57,0.38 0.87,0.74l0.29 0zm-0.17 -1.78c-0.12,0 -0.22,0.09 -0.22,0.23 0,0.14 0.1,0.23 0.22,0.23 0.12,0 0.21,-0.09 0.21,-0.23 0,-0.14 -0.09,-0.23 -0.21,-0.23zm0.19 -0.98l0 -0.39 -0.3 0 0 -0.19 -0.34 0 0 0.19 -1.01 0 0 0.44 1.04 0.72 0.31 0 0 -0.77 0.3 0zm-0.64 0.36l-0.58 -0.39 0.58 0 0 0.39zm0.64 -1.66l0 -0.39 -0.65 0 0 -0.5 -0.3 0 0 0.5 -0.35 0 0 -0.66 -0.31 0 0 1.05 1.61 0zm0 -1.26l0 -0.39 -0.97 0 0.97 -0.36 0 -0.32 -0.96 -0.36 0.96 0 0 -0.4 -1.61 0 0 0.47 1.12 0.44 -1.12 0.46 0 0.46 1.61 0z"/>
 </g>
</svg>
